<svg viewBox="0 0 100 100" xmlns="http://www.w3.org/2000/svg">
  <defs>
    <linearGradient id="bg" x1="0%" y1="0%" x2="100%" y2="100%">
      <stop offset="0%" stop-color="#4F46E5" />
      <stop offset="100%" stop-color="#2563EB" />
    </linearGradient>
    <linearGradient id="fg" x1="0%" y1="0%" x2="0%" y2="100%">
      <stop offset="0%" stop-color="#FFFFFF" />
      <stop offset="100%" stop-color="#E2E8F0" />
    </linearGradient>
    <filter id="shadow" x="-5%" y="-5%" width="110%" height="110%">
      <feDropShadow dx="0" dy="2" stdDeviation="2" flood-color="#000000" flood-opacity="0.3" />
    </filter>
  </defs>
  <rect width="100" height="100" rx="24" fill="url(#bg)" />
  <path d="M 64.12 30.15 C 59.98 27.66 54.34 26 48.7 26 C 36.6 26 29 32.74 29 42.14 C 29 49.33 33.6 53.68 44.91 56.63 L 49.27 57.77 C 56.2 59.6 58.74 61.85 58.74 66.08 C 58.74 71.01 54.08 74.54 46.89 74.54 C 40.4 74.54 34.33 72.15 29.82 68.62 L 25.45 76.51 C 31.08 81.31 38.84 83.7 46.89 83.7 C 59.98 83.7 68.86 76.22 68.86 65.65 C 68.86 58.04 64.91 53.38 52.8 50.28 L 48.56 49.15 C 41.51 47.32 39.11 45.49 39.11 41.54 C 39.11 37.31 43.48 34.49 50.11 34.49 C 55.46 34.49 60.54 36.46 64.35 39 L 68.58 31.11 L 64.12 30.15 Z" fill="url(#fg)" filter="url(#shadow)" />
</svg>
